<svg width="24" height="28" viewBox="0 0 24 28" fill="none" xmlns="http://www.w3.org/2000/svg">
<path d="M12 0.00561523L9.60141 1.38893L21.5845 8.31114L21.5929 13.8514L23.9915 15.2348V6.92923L12 0.00561523Z" fill="#787995"/>
<path d="M12 11.0862L9.60141 12.4681V20.7751L12 22.157V13.8514L21.5929 19.3918L12 24.9321L7.20423 22.1654V11.0862L12 8.31114L19.1944 12.4681V9.70292V9.69446L7.20423 2.7793L0.008461 6.93629V20.7751L2.40705 22.1654V8.3196L7.20423 5.54592L9.60141 6.92924L4.80564 9.70292V23.5487L12 27.6973L23.9915 20.7751V18.0084L12 11.0862Z" fill="#787995"/>
<path d="M14.3986 18.0085V20.7751L16.7958 19.3918L14.3986 18.0085Z" fill="#787995"/>
</svg>
